<?xml version="1.0" encoding="utf-8"?>
<!-- Generator: Adobe Illustrator 26.0.0, SVG Export Plug-In . SVG Version: 6.00 Build 0)  -->
<svg version="1.1" id="图层_1" xmlns="http://www.w3.org/2000/svg" xmlns:xlink="http://www.w3.org/1999/xlink" x="0px" y="0px"
	 viewBox="0 0 800 600" style="enable-background:new 0 0 800 600;" xml:space="preserve">
<style type="text/css">
	.st0{fill:#3182CE;}
	.st1{fill:#4299E1;}
	.st2{fill:#63B3ED;}
</style>
<path class="st0" d="M468.2,260.6l53.9-31.1v141l-53.9-31.1V260.6z M331.8,260.6l-53.9-31.1v141l53.9-31.1V260.6z M400,221.2V159
	l-122.1,70.5l53.9,31.1L400,221.2z M468.2,260.6l53.9-31.1L400,159v62.3L468.2,260.6z"/>
<path class="st1" d="M400,441v94L196.4,417.5l81.4-47L400,441z M400,441v94l203.6-117.5l-81.4-47L400,441z M277.9,229.5l-81.4-47
	v235l81.4-47V229.5z M522.1,370.5l81.4,47v-235l-81.4,47V370.5z"/>
<path class="st2" d="M400,378.8V441l-122.1-70.5l53.9-31.1L400,378.8z M400,378.8V441l122.1-70.5l-53.9-31.1L400,378.8z M400,159V65
	L196.4,182.5l81.4,47L400,159z M522.1,229.5l81.4-47L400,65v94L522.1,229.5z"/>
</svg>
