<svg xmlns="http://www.w3.org/2000/svg" viewBox="0 0 407.2 470"><defs><style>.cls-1{fill:#3182ce;}.cls-2{fill:#4299e1;}.cls-3{fill:#63b3ed;}</style></defs><g id="图层_2" data-name="图层 2"><g id="图层_1-2" data-name="图层 1"><path class="cls-1" d="M271.8,195.6l53.9-31.1v141l-53.9-31.1V195.6Zm-136.4,0L81.5,164.5v141l53.9-31.1Zm68.2-39.4V94L81.5,164.5l53.9,31.1Zm68.2,39.4,53.9-31.1L203.6,94v62.3Z"/><path class="cls-2" d="M203.6,376v94L0,352.5l81.4-47Zm0,0v94L407.2,352.5l-81.4-47ZM81.5,164.5.1,117.5v235l81.4-47Zm244.2,141,81.4,47v-235l-81.4,47Z"/><path class="cls-3" d="M203.6,313.8V376L81.5,305.5l53.9-31.1Zm0,0V376l122.1-70.5-53.9-31.1Zm0-219.8V0L0,117.5l81.4,47Zm122.1,70.5,81.4-47L203.6,0V94Z"/></g></g></svg>